<?xml version="1.0" standalone="no"?>
<!DOCTYPE svg PUBLIC "-//W3C//DTD SVG 20010904//EN"
 "http://www.w3.org/TR/2001/REC-SVG-20010904/DTD/svg10.dtd">
<svg version="1.0" xmlns="http://www.w3.org/2000/svg"
 width="282.000000pt" height="282.000000pt" viewBox="0 0 282.000000 282.000000"
 preserveAspectRatio="xMidYMid meet">
<metadata>
Created by potrace 1.14, written by Peter Selinger 2001-2017
</metadata>
<g transform="translate(0.000000,282.000000) scale(0.100000,-0.100000)"
fill="#000000" stroke="none">
<path d="M390 2805 c-7 -9 -21 -13 -31 -10 -18 6 -19 -8 -19 -384 0 -341 2
-391 15 -391 8 0 15 6 16 13 0 13 49 -81 49 -96 0 -5 -7 -4 -15 3 -23 19 -19
-6 5 -30 l20 -20 0 58 c0 31 3 192 7 357 6 333 -1 515 -22 515 -7 0 -18 -7
-25 -15z m6 -63 c-7 -15 -18 -38 -24 -52 -9 -22 -11 -20 -11 27 -1 41 2 52 17
56 27 6 31 -1 18 -31z m-29 -434 c-2 -18 -4 -6 -4 27 0 33 2 48 4 33 2 -15 2
-42 0 -60z"/>
<path d="M1992 2675 c3 -151 -2 -170 -35 -117 -28 47 -114 132 -133 132 -9 0
-26 8 -36 17 -10 9 -38 19 -61 22 -29 4 -43 11 -45 24 -2 11 3 17 15 18 10 0
6 4 -11 10 -23 6 -37 4 -61 -11 -22 -14 -42 -18 -66 -14 -27 5 -38 1 -53 -15
-11 -12 -24 -21 -30 -21 -6 0 -33 -11 -61 -24 -27 -14 -77 -36 -110 -50 -49
-20 -61 -30 -66 -53 -4 -15 -7 -23 -8 -16 -1 15 -51 -7 -51 -24 0 -6 -8 -19
-17 -29 -30 -30 -41 -83 -27 -132 18 -62 40 -92 69 -92 21 0 24 -6 30 -47 7
-58 24 -116 37 -124 6 -4 6 -21 -1 -45 -6 -22 -11 -58 -11 -81 0 -39 2 -43 24
-43 34 0 91 -35 104 -65 6 -14 16 -25 22 -25 5 0 10 -13 10 -29 0 -16 9 -39
19 -52 17 -21 28 -24 94 -24 l76 0 55 -47 c30 -27 57 -56 61 -67 7 -23 -50
-123 -93 -164 -27 -26 -29 -33 -21 -60 5 -18 9 -47 9 -65 0 -48 -55 -207 -92
-263 l-31 -49 -31 25 c-17 14 -60 46 -96 71 -75 54 -220 193 -220 212 0 21 17
13 46 -20 24 -30 26 -31 19 -8 -8 25 -62 80 -79 80 -13 0 2 111 19 136 8 12
35 30 60 40 52 21 65 49 47 97 -6 17 -8 36 -3 44 4 8 1 34 -7 60 -15 44 -15
47 6 64 23 18 30 59 11 59 -5 0 -28 14 -49 31 -32 26 -41 42 -50 84 -7 32 -20
61 -35 75 -14 13 -25 27 -25 32 0 18 -107 108 -147 124 -69 27 -163 15 -251
-31 -96 -50 -152 -101 -185 -168 -22 -46 -27 -69 -27 -135 0 -65 -4 -84 -21
-106 -17 -21 -19 -29 -9 -41 10 -12 9 -25 -4 -64 -9 -28 -16 -61 -16 -74 0
-13 -13 -41 -30 -62 -16 -21 -30 -41 -30 -46 0 -4 -8 -15 -18 -25 -13 -14 -17
-35 -17 -101 0 -60 3 -82 12 -79 21 8 34 -21 28 -61 -5 -30 -4 -34 5 -20 16
25 45 21 59 -9 6 -15 23 -35 36 -46 19 -15 25 -29 25 -59 0 -21 -4 -39 -10
-39 -5 0 -10 -12 -10 -26 0 -21 4 -25 20 -21 13 3 20 0 20 -9 0 -8 -4 -14 -10
-14 -5 0 -10 -4 -10 -10 0 -14 42 -13 90 2 25 8 38 18 35 25 -7 20 12 15 28
-6 14 -21 14 -19 -13 -216 -14 -104 -8 -220 16 -307 13 -46 28 -72 61 -104 24
-24 43 -48 43 -54 0 -6 19 -40 42 -77 42 -66 50 -102 33 -150 -6 -18 1 -31 34
-64 23 -23 41 -46 41 -51 0 -4 366 -8 814 -8 l814 0 7 212 c8 240 2 576 -15
873 -6 110 -11 226 -10 257 1 49 -4 68 -34 123 -85 154 -123 201 -210 264 -71
52 -85 66 -90 96 -8 43 -44 105 -60 105 -7 0 -17 -5 -23 -11 -5 -5 -24 -12
-41 -14 -36 -5 -52 12 -77 78 -10 26 -21 47 -25 47 -13 0 -22 75 -15 125 5 31
12 45 20 41 9 -3 14 22 17 101 3 70 9 107 18 113 8 5 10 19 6 41 -21 107 -24
144 -14 162 6 12 8 52 6 94 l-5 74 26 -3 c31 -4 28 39 30 -472 1 -203 3 -367
5 -365 7 6 12 879 6 879 -3 0 -11 -5 -17 -11 -8 -8 -13 -8 -17 0 -4 6 -18 11
-32 11 l-25 0 3 -145z"/>
<path d="M517 2799 c7 -7 15 -10 18 -7 3 3 -2 9 -12 12 -14 6 -15 5 -6 -5z"/>
<path d="M350 1944 c0 -8 5 -12 10 -9 6 3 10 10 10 16 0 5 -4 9 -10 9 -5 0
-10 -7 -10 -16z"/>
<path d="M343 1780 c0 -25 2 -35 4 -22 2 12 2 32 0 45 -2 12 -4 2 -4 -23z"/>
<path d="M342 1700 c0 -14 2 -19 5 -12 2 6 2 18 0 25 -3 6 -5 1 -5 -13z"/>
<path d="M342 1590 c0 -19 2 -27 5 -17 2 9 2 25 0 35 -3 9 -5 1 -5 -18z"/>
<path d="M350 1531 c0 -6 5 -13 10 -16 6 -3 10 1 10 9 0 9 -4 16 -10 16 -5 0
-10 -4 -10 -9z"/>
<path d="M380 1143 c0 -5 5 -15 10 -23 8 -12 10 -11 10 8 0 12 -4 22 -10 22
-5 0 -10 -3 -10 -7z"/>
<path d="M411 993 c0 -5 4 -17 9 -28 8 -18 9 -17 9 8 1 15 -3 27 -9 27 -5 0
-10 -3 -9 -7z"/>
<path d="M367 953 c-10 -9 -9 -33 1 -33 4 0 8 9 9 20 2 21 0 24 -10 13z"/>
<path d="M412 928 c-7 -7 -12 -18 -12 -25 0 -7 -4 -13 -9 -13 -5 0 -9 -23 -8
-52 2 -46 5 -52 25 -53 21 -2 22 2 22 77 0 43 -1 78 -3 78 -2 0 -8 -5 -15 -12z"/>
<path d="M357 741 c-10 -47 -7 -212 3 -236 8 -19 9 -19 9 3 1 12 6 31 13 41 9
15 9 28 -1 59 -8 22 -11 55 -7 74 3 18 2 47 -2 63 l-8 30 -7 -34z"/>
<path d="M422 655 c0 -16 2 -22 5 -12 2 9 2 23 0 30 -3 6 -5 -1 -5 -18z"/>
<path d="M422 495 c0 -16 2 -22 5 -12 2 9 2 23 0 30 -3 6 -5 -1 -5 -18z"/>
<path d="M415 358 c-3 -51 -8 -118 -11 -148 -3 -30 -5 -63 -5 -72 0 -10 -4
-20 -10 -23 -5 -4 -9 -18 -10 -33 l-1 -27 -7 25 c-7 23 -8 21 -14 -15 -11 -65
-11 -65 39 -65 l46 0 -7 222 c-3 122 -7 224 -9 226 -2 2 -7 -39 -11 -90z"/>
</g>
</svg>
